<?xml version="1.0" encoding="UTF-8"?>
<svg id="Capa_2" data-name="Capa 2" xmlns="http://www.w3.org/2000/svg" viewBox="0 0 687.4 528.4">
  <defs>
    <style>
      .cls-1 {
        fill: #5cc6f3;
      }

      .cls-1, .cls-2, .cls-3 {
        stroke-width: 0px;
      }

      .cls-2 {
        fill: #003697;
      }

      .cls-3 {
        fill: #4b5563;
      }
    </style>
  </defs>
  <g id="Capa_1-2" data-name="Capa 1">
    <g>
      <path class="cls-2" d="M607.84,299.9c0,27.21-.77,54.45.29,81.61.62,15.84-4.29,21.94-20.79,22-7.66.03-13.53.24-21.72,0-17.11-.49-21.58-4.92-21.26-21.36.96-48.96.66-97.94.25-146.91-.46-54.91-35.43-92.76-84.89-92.75-49.52.01-83.05,37.54-83.75,93.25-.33,26.25.45,52.68-2.35,78.7-8.92,83.07-74.1,139.4-154.26,134.91-80.21-4.49-140.01-68.06-140.77-150.32-.46-49.88.8-99.78-.53-149.63-.51-19.29,5.34-23.97,24.36-23.72,7.25.09,7.27-.1,10.86,0,24.52.7,31.73,2.91,30.35,28.46-2.49,46.12-.81,92.47-.68,138.72.15,54.64,35.92,94.44,84,93.72,48.74-.73,83.99-39.81,84.6-94.09.26-22.67-.36-45.35.12-68.02,1.66-78.98,65.12-144.13,142.34-146.51,80.35-2.47,146.51,56.7,152.22,137.71,1.97,27.94,1.67,49.74,1.67,77.82.05.83-.09,3.3-.09,6.41Z"/>
      <path class="cls-1" d="M622.39,288.4c-2.96-35.05,4.76-76.54-9.86-117.49-23.88-66.87-86.23-110.22-156.66-107.21-80.63,3.44-141.69,57.04-155.67,130.27-5.6,29.36-29.8,42.19-57.72,31.4-11.34-4.38-8.01-13.22-7.28-20.5,7.69-76.21,44.02-136.49,110.33-173.31,123.73-68.71,263.28-21.65,323.29,106.28,11.9,25.37,17.52,53.32,17.95,81.46.82,54.34-.29,108.71.62,163.04.28,16.69-5.05,21.59-21.62,21.65-43.38.18-43.37.98-43.38-41.51,0-22.65,0-45.29,0-74.08Z"/>
      <path class="cls-3" d="M63.92,225.97c0,29.87.37,59.2,1.29,89.04,2.38,77.62,72.46,148.77,160.72,149.51,82.47.69,151.06-60.39,161.11-145.59,2.53-21.46,15.35-18.08,28.6-18.17q40.32-.28,33.99,39.07c-17.47,110-115.91,191.69-227.63,188.48C88.93,524.5.26,414.58.7,309.15c.22-53.5.39-107.01-.68-160.49-.34-17.11,3.7-23.97,22.27-23.3,49.16,1.76,40.54-4.65,41.46,39.87.41,19.94.26,25.63.26,45.58-.05,1.54-.09,12.35-.09,15.16Z"/>
    </g>
  </g>
</svg>