<?xml version="1.0" encoding="UTF-8"?>
<svg id="Capa_2" data-name="Capa 2" xmlns="http://www.w3.org/2000/svg" viewBox="0 0 462.83 89.66">
  <defs>
    <style>
      .cls-1 {
        fill: #5cc6f3;
      }

      .cls-1, .cls-2, .cls-3 {
        stroke-width: 0px;
      }

      .cls-2 {
        fill: #003697;
      }

      .cls-4 {
        fill: #334155;
        font-family: FuturaBT-Medium, 'Futura Md BT';
        font-size: 60px;
        font-weight: 500;
        letter-spacing: -.04em;
      }

      .cls-3 {
        fill: #4b5563;
      }
    </style>
  </defs>
  <g id="Capa_1-2" data-name="Capa 1">
    <g>
      <path class="cls-2" d="M103.14,50.89c0,4.62-.13,9.24.05,13.85.1,2.69-.73,3.72-3.53,3.73-1.3,0-2.3.04-3.69,0-2.9-.08-3.66-.83-3.61-3.62.16-8.31.11-16.62.04-24.93-.08-9.32-6.01-15.74-14.41-15.74-8.4,0-14.09,6.37-14.21,15.82-.06,4.45.08,8.94-.4,13.36-1.51,14.1-12.57,23.65-26.18,22.89-13.61-.76-23.76-11.55-23.89-25.51-.08-8.46.14-16.93-.09-25.39-.09-3.27.91-4.07,4.13-4.03,1.23.02,1.23-.02,1.84,0,4.16.12,5.38.49,5.15,4.83-.42,7.83-.14,15.69-.12,23.54.03,9.27,6.1,16.03,14.25,15.9,8.27-.12,14.25-6.76,14.36-15.97.04-3.85-.06-7.7.02-11.54.28-13.4,11.05-24.46,24.15-24.86,13.63-.42,24.86,9.62,25.83,23.37.33,4.74.28,8.44.28,13.21,0,.14-.02.56-.02,1.09Z"/>
      <path class="cls-1" d="M105.61,48.94c-.5-5.95.81-12.99-1.67-19.94-4.05-11.35-14.63-18.7-26.58-18.19-13.68.58-24.04,9.68-26.41,22.11-.95,4.98-5.06,7.16-9.79,5.33-1.92-.74-1.36-2.24-1.23-3.48,1.3-12.93,7.47-23.16,18.72-29.41,21-11.66,44.68-3.67,54.86,18.03,2.02,4.31,2.97,9.05,3.05,13.82.14,9.22-.05,18.45.11,27.67.05,2.83-.86,3.66-3.67,3.67-7.36.03-7.36.17-7.36-7.04,0-3.84,0-7.69,0-12.57Z"/>
      <path class="cls-3" d="M10.85,38.34c0,5.07.06,10.05.22,15.11.4,13.17,12.3,25.24,27.27,25.37,13.99.12,25.63-10.25,27.34-24.7.43-3.64,2.6-3.07,4.85-3.08q6.84-.05,5.77,6.63c-2.96,18.67-19.67,32.53-38.63,31.98C15.09,89,.04,70.35.12,52.46c.04-9.08.07-18.16-.11-27.23-.06-2.9.63-4.07,3.78-3.95,8.34.3,6.88-.79,7.03,6.77.07,3.38.04,4.35.04,7.73,0,.26-.02,2.1-.02,2.57Z"/>
    </g>
    <text class="cls-4" transform="translate(124.71 68.52)"><tspan x="0" y="0">Brishman CL</tspan></text>
  </g>
</svg>